<svg width="43" height="40" viewBox="0 0 43 40" fill="none" xmlns="http://www.w3.org/2000/svg">
<path d="M21.0002 0.00976562C19.7567 0.00976562 18.5146 0.479819 17.5745 1.41992L6.99243 12H3.5022C2.4552 12 1.47193 12.4625 0.80493 13.2695C0.13793 14.0765 -0.134258 15.1273 0.0627424 16.1543L2.83618 30.7168C3.41918 33.7778 6.1059 36 9.2229 36H21.0452C20.4522 35.074 19.9722 34.067 19.6272 33H9.2229C7.5439 33 6.09645 31.8033 5.78345 30.1543L3.01001 15.5938C2.97201 15.3938 3.06048 15.2486 3.11548 15.1816C3.17148 15.1126 3.2972 15 3.5022 15H7.34399C7.5063 15.0269 7.67192 15.0269 7.83423 15H34.1643C34.3273 15.0271 34.4935 15.0271 34.6565 15H38.4983C38.7033 15 38.829 15.1126 38.885 15.1816C38.941 15.2486 39.0295 15.3927 38.9905 15.5938L38.5725 17.7812C39.5475 18.3542 40.4417 19.0516 41.2327 19.8496L41.9377 16.1543C42.1337 15.1273 41.8626 14.0765 41.1956 13.2695C40.5286 12.4625 39.5453 12 38.4983 12H35.0081L24.428 1.41992C23.4879 0.479819 22.2438 0.00976562 21.0002 0.00976562ZM21.0002 2.99023C21.4696 2.99023 21.94 3.17412 22.3069 3.54102L30.7659 12H11.2346L19.6956 3.54102C20.0625 3.17412 20.5309 2.99023 21.0002 2.99023ZM32.0002 18C25.9252 18 21.0002 22.925 21.0002 29C21.0002 35.075 25.9252 40 32.0002 40C38.0752 40 43.0002 35.075 43.0002 29C43.0002 22.925 38.0752 18 32.0002 18ZM10.5198 18.9785C10.3102 18.9756 10.1022 19.0166 9.90946 19.099C9.71667 19.1813 9.54329 19.3032 9.40048 19.4566C9.25768 19.6101 9.14863 19.7918 9.08036 19.99C9.0121 20.1882 8.98613 20.3986 9.00415 20.6074L9.50415 27.6074C9.51513 27.8062 9.56556 28.0008 9.65252 28.1799C9.73947 28.359 9.8612 28.519 10.0106 28.6506C10.16 28.7821 10.3341 28.8826 10.5228 28.9462C10.7114 29.0098 10.9109 29.0353 11.1095 29.021C11.308 29.0067 11.5018 28.9531 11.6794 28.8632C11.857 28.7733 12.015 28.6489 12.1441 28.4974C12.2732 28.3458 12.3708 28.1701 12.4313 27.9804C12.4918 27.7907 12.5139 27.5909 12.4963 27.3926L11.9963 20.3926C11.9746 20.0139 11.8102 19.6574 11.5362 19.3951C11.2623 19.1327 10.8991 18.9839 10.5198 18.9785ZM17.4768 18.9785C17.0793 18.9847 16.7006 19.1485 16.4237 19.4337C16.1468 19.719 15.9945 20.1025 16.0002 20.5V27.5C15.9974 27.6988 16.0342 27.8961 16.1083 28.0806C16.1824 28.265 16.2924 28.4329 16.432 28.5745C16.5716 28.716 16.7379 28.8284 16.9213 28.9051C17.1046 28.9819 17.3015 29.0214 17.5002 29.0214C17.699 29.0214 17.8958 28.9819 18.0792 28.9051C18.2626 28.8284 18.4289 28.716 18.5685 28.5745C18.708 28.4329 18.8181 28.265 18.8922 28.0806C18.9663 27.8961 19.0031 27.6988 19.0002 27.5V20.5C19.0031 20.2992 18.9657 20.0999 18.8901 19.9139C18.8145 19.7279 18.7024 19.5589 18.5603 19.417C18.4183 19.2752 18.2492 19.1632 18.063 19.0879C17.8769 19.0126 17.6776 18.9754 17.4768 18.9785ZM32.0002 22C32.4802 22 32.9087 22.3058 33.0647 22.7598L34.178 26H37.8752C38.3582 26 38.7877 26.3086 38.9417 26.7656C39.0956 27.2236 38.9399 27.7295 38.5549 28.0215L35.5608 30.293L36.5745 33.5391C36.7205 34.0051 36.5486 34.511 36.1506 34.793C35.9556 34.931 35.7272 35 35.5002 35C35.2632 35 35.0254 34.9254 34.8264 34.7754L32.0002 32.6602L29.1741 34.7754C28.7841 35.0684 28.2489 35.0769 27.8499 34.7949C27.4519 34.5129 27.28 34.0051 27.426 33.5391L28.4397 30.2949L25.4456 28.0215C25.0606 27.7295 24.9048 27.2256 25.0588 26.7676C25.2138 26.3096 25.6422 26 26.1252 26H29.8225L30.9358 22.7598C31.0918 22.3058 31.5202 22 32.0002 22Z" fill="#47A069"/>
</svg>
