<svg width="44" height="44" viewBox="0 0 44 44" fill="none" xmlns="http://www.w3.org/2000/svg">
<path d="M30.5 0C26.3755 0 23 3.3755 23 7.5C23 9.01506 23.5659 10.3512 24.3438 11.5352L11.5352 24.3438C10.3512 23.5659 9.01506 23 7.5 23C3.3755 23 0 26.3755 0 30.5C0 34.1832 2.74064 37.1279 6.25391 37.7461C6.87205 41.2594 9.81676 44 13.5 44C17.6245 44 21 40.6245 21 36.5C21 35.0467 20.476 33.7585 19.7559 32.6074L32.6074 19.7559C33.7582 20.4759 35.0462 21 36.5 21C40.6245 21 44 17.6245 44 13.5C44 9.81676 41.2594 6.87205 37.7461 6.25391C37.1279 2.74064 34.1832 0 30.5 0ZM30.5 3C33.0035 3 35 4.9965 35 7.5C35 7.89781 35.1581 8.27932 35.4394 8.56062C35.7207 8.84191 36.1022 8.99996 36.5 9C39.0035 9 41 10.9965 41 13.5C41 16.0035 39.0035 18 36.5 18C35.2969 18 34.2254 17.5336 33.4141 16.7676C33.1303 16.4997 32.7534 16.3529 32.3632 16.3584C31.973 16.3639 31.6003 16.5212 31.3242 16.7969L16.7969 31.3242C16.5212 31.6003 16.3639 31.973 16.3584 32.3632C16.3529 32.7534 16.4997 33.1303 16.7676 33.4141C17.5333 34.2251 18 35.2981 18 36.5C18 39.0035 16.0035 41 13.5 41C10.9965 41 9 39.0035 9 36.5C8.99996 36.1022 8.84191 35.7207 8.56062 35.4394C8.27932 35.1581 7.89781 35 7.5 35C4.9965 35 3 33.0035 3 30.5C3 27.9965 4.9965 26 7.5 26C8.75145 26 9.86708 26.5026 10.6836 27.3184C10.9648 27.599 11.3459 27.7565 11.7432 27.7565C12.1404 27.7565 12.5215 27.599 12.8027 27.3184L27.3184 12.8027C27.599 12.5215 27.7565 12.1404 27.7565 11.7432C27.7565 11.3459 27.599 10.9648 27.3184 10.6836C26.5026 9.86708 26 8.75145 26 7.5C26 4.9965 27.9965 3 30.5 3Z" fill="#47A069"/>
</svg>
