<svg width="35" height="38" viewBox="0 0 35 38" fill="none" xmlns="http://www.w3.org/2000/svg">
<path d="M9.5 0.000150012C9.1418 0.000197291 8.79543 0.128415 8.52354 0.361619C8.25165 0.594822 8.07218 0.917618 8.01758 1.27163L6.01758 14.2716C6.0059 14.3472 6.00002 14.4236 6 14.5001V19.5002C6 21.4151 7.58504 23.0002 9.5 23.0002H12V33.0001C11.9973 33.2145 12.0406 33.427 12.127 33.6232C12.4498 36.064 14.4767 38.0001 17 38.0001C19.7437 38.0001 22 35.7438 22 33.0001C22 30.2565 19.7437 28.0002 17 28.0002C16.288 28.0002 15.6155 28.1627 15 28.4357V21.7462C15.0265 21.5852 15.0265 21.4209 15 21.2599V14.5001C15 14.4236 14.9941 14.3472 14.9824 14.2716L12.9824 1.27163C12.9278 0.917618 12.7483 0.594822 12.4765 0.361619C12.2046 0.128415 11.8582 0.000197291 11.5 0.000150012H9.5ZM22.5 0.000150012C22.3012 -0.00266106 22.1039 0.0340607 21.9194 0.108181C21.735 0.182302 21.5671 0.292343 21.4255 0.43191C21.284 0.571477 21.1716 0.737785 21.0949 0.921171C21.0181 1.10456 20.9786 1.30136 20.9786 1.50015C20.9786 1.69894 21.0181 1.89574 21.0949 2.07913C21.1716 2.26251 21.284 2.42882 21.4255 2.56839C21.5671 2.70796 21.735 2.818 21.9194 2.89212C22.1039 2.96624 22.3012 3.00296 22.5 3.00015H31.5C31.795 3.00015 32 3.2051 32 3.50015V34.0001C32 34.5709 31.5707 35.0001 31 35.0001C30.4293 35.0001 30 34.5709 30 34.0001V21.5002C30 21.1023 29.8419 20.7208 29.5606 20.4395C29.2793 20.1582 28.8978 20.0002 28.5 20.0002H22.5C22.3012 19.9973 22.1039 20.0341 21.9194 20.1082C21.735 20.1823 21.5671 20.2923 21.4255 20.4319C21.284 20.5715 21.1716 20.7378 21.0949 20.9212C21.0181 21.1046 20.9786 21.3014 20.9786 21.5002C20.9786 21.6989 21.0181 21.8957 21.0949 22.0791C21.1716 22.2625 21.284 22.4288 21.4255 22.5684C21.5671 22.708 21.735 22.818 21.9194 22.8921C22.1039 22.9662 22.3012 23.003 22.5 23.0002H27V34.0001C27 36.1914 28.8087 38.0001 31 38.0001C33.1913 38.0001 35 36.1914 35 34.0001V3.50015C35 1.5852 33.415 0.000150012 31.5 0.000150012H22.5ZM10.5 4.86538L12 14.6154V20.0002H9.5C9.20496 20.0002 9 19.7952 9 19.5002V14.6154L10.5 4.86538ZM22.5 5.00015C22.3012 4.99734 22.1039 5.03406 21.9194 5.10818C21.735 5.1823 21.5671 5.29234 21.4255 5.43191C21.284 5.57148 21.1716 5.73779 21.0949 5.92117C21.0181 6.10456 20.9786 6.30136 20.9786 6.50015C20.9786 6.69894 21.0181 6.89574 21.0949 7.07913C21.1716 7.26251 21.284 7.42882 21.4255 7.56839C21.5671 7.70796 21.735 7.818 21.9194 7.89212C22.1039 7.96624 22.3012 8.00296 22.5 8.00015H28.5C28.6988 8.00296 28.8961 7.96624 29.0806 7.89212C29.265 7.818 29.4329 7.70796 29.5745 7.56839C29.716 7.42882 29.8284 7.26251 29.9051 7.07913C29.9819 6.89574 30.0214 6.69894 30.0214 6.50015C30.0214 6.30136 29.9819 6.10456 29.9051 5.92117C29.8284 5.73779 29.716 5.57148 29.5745 5.43191C29.4329 5.29234 29.265 5.1823 29.0806 5.10818C28.8961 5.03406 28.6988 4.99734 28.5 5.00015H22.5ZM22.5 10.0001C22.3012 9.99734 22.1039 10.0341 21.9194 10.1082C21.735 10.1823 21.5671 10.2923 21.4255 10.4319C21.284 10.5715 21.1716 10.7378 21.0949 10.9212C21.0181 11.1046 20.9786 11.3014 20.9786 11.5001C20.9786 11.6989 21.0181 11.8957 21.0949 12.0791C21.1716 12.2625 21.284 12.4288 21.4255 12.5684C21.5671 12.708 21.735 12.818 21.9194 12.8921C22.1039 12.9662 22.3012 13.003 22.5 13.0001H28.5C28.6988 13.003 28.8961 12.9662 29.0806 12.8921C29.265 12.818 29.4329 12.708 29.5745 12.5684C29.716 12.4288 29.8284 12.2625 29.9051 12.0791C29.9819 11.8957 30.0214 11.6989 30.0214 11.5001C30.0214 11.3014 29.9819 11.1046 29.9051 10.9212C29.8284 10.7378 29.716 10.5715 29.5745 10.4319C29.4329 10.2923 29.265 10.1823 29.0806 10.1082C28.8961 10.0341 28.6988 9.99734 28.5 10.0001H22.5ZM22.5 15.0001C22.3012 14.9973 22.1039 15.0341 21.9194 15.1082C21.735 15.1823 21.5671 15.2923 21.4255 15.4319C21.284 15.5715 21.1716 15.7378 21.0949 15.9212C21.0181 16.1046 20.9786 16.3014 20.9786 16.5002C20.9786 16.6989 21.0181 16.8957 21.0949 17.0791C21.1716 17.2625 21.284 17.4288 21.4255 17.5684C21.5671 17.708 21.735 17.818 21.9194 17.8921C22.1039 17.9662 22.3012 18.003 22.5 18.0002H28.5C28.6988 18.003 28.8961 17.9662 29.0806 17.8921C29.265 17.818 29.4329 17.708 29.5745 17.5684C29.716 17.4288 29.8284 17.2625 29.9051 17.0791C29.9819 16.8957 30.0214 16.6989 30.0214 16.5002C30.0214 16.3014 29.9819 16.1046 29.9051 15.9212C29.8284 15.7378 29.716 15.5715 29.5745 15.4319C29.4329 15.2923 29.265 15.1823 29.0806 15.1082C28.8961 15.0341 28.6988 14.9973 28.5 15.0001H22.5ZM6 23.7404V27.2794C5.5279 27.1093 5.02745 27.0002 4.5 27.0002C2.0325 27.0002 0 29.0326 0 31.5002V33.5001C0 35.9677 2.0325 38.0001 4.5 38.0001C6.9675 38.0001 9 35.9677 9 33.5001V32.5001V31.5002V24.9709C7.86 24.8709 6.83 24.4304 6 23.7404ZM4.5 30.0002C5.3465 30.0002 6 30.6537 6 31.5002V32.5001V33.5001C6 34.3466 5.3465 35.0001 4.5 35.0001C3.6535 35.0001 3 34.3466 3 33.5001V31.5002C3 30.6537 3.6535 30.0002 4.5 30.0002ZM17 31.0002C18.1223 31.0002 19 31.8778 19 33.0001C19 34.1225 18.1223 35.0001 17 35.0001C15.8777 35.0001 15 34.1225 15 33.0001C15 31.8778 15.8777 31.0002 17 31.0002Z" fill="#47A069"/>
</svg>
