<svg width="29" height="41" viewBox="0 0 29 41" fill="none" xmlns="http://www.w3.org/2000/svg">
<path d="M27.4553 0.000180022C27.3479 0.00370611 27.2412 0.0187665 27.1369 0.0451019L18.1662 2.28534C15.9302 2.84529 14.3116 4.75093 14.053 7.00018H8.00023C5.25657 7.00018 3.00023 9.25652 3.00023 12.0002C3.00023 14.7438 5.25657 17.0002 8.00023 17.0002H8.50023V30.3791L1.43968 37.4396C1.29573 37.5779 1.1808 37.7434 1.10162 37.9266C1.02245 38.1098 0.980622 38.3069 0.978593 38.5065C0.976564 38.7061 1.01437 38.904 1.08981 39.0888C1.16524 39.2735 1.27678 39.4414 1.4179 39.5825C1.55902 39.7236 1.72687 39.8352 1.91163 39.9106C2.0964 39.986 2.29436 40.0238 2.49392 40.0218C2.69347 40.0198 2.89062 39.978 3.07381 39.8988C3.25701 39.8196 3.42256 39.7047 3.56078 39.5607L8.50023 34.6213V38.5002C8.49742 38.6989 8.53414 38.8963 8.60826 39.0807C8.68238 39.2652 8.79243 39.4331 8.93199 39.5746C9.07156 39.7162 9.23787 39.8286 9.42125 39.9053C9.60464 39.982 9.80144 40.0215 10.0002 40.0215C10.199 40.0215 10.3958 39.982 10.5792 39.9053C10.7626 39.8286 10.9289 39.7162 11.0685 39.5746C11.208 39.4331 11.3181 39.2652 11.3922 39.0807C11.4663 38.8963 11.503 38.6989 11.5002 38.5002V34.6213L16.4397 39.5607C16.5779 39.7047 16.7435 39.8196 16.9266 39.8988C17.1098 39.978 17.307 40.0198 17.5065 40.0218C17.7061 40.0238 17.9041 39.986 18.0888 39.9106C18.2736 39.8352 18.4414 39.7236 18.5826 39.5825C18.7237 39.4414 18.8352 39.2735 18.9107 39.0888C18.9861 38.904 19.0239 38.7061 19.0219 38.5065C19.0198 38.3069 18.978 38.1098 18.8988 37.9266C18.8197 37.7434 18.7047 37.5779 18.5608 37.4396L11.5002 30.3791V17.0002H14.053C14.3122 19.2491 15.9303 21.1544 18.1662 21.7131L27.1369 23.9553C27.358 24.0104 27.5888 24.0145 27.8117 23.9671C28.0346 23.9198 28.2438 23.8223 28.4234 23.6821C28.603 23.5418 28.7483 23.3625 28.8482 23.1577C28.9482 22.9529 29.0002 22.7281 29.0002 22.5002V1.50018C29.0003 1.29937 28.9601 1.10058 28.8819 0.915611C28.8037 0.73064 28.6892 0.56325 28.5451 0.423363C28.401 0.283476 28.2303 0.173939 28.0431 0.101247C27.8559 0.0285549 27.656 -0.0058133 27.4553 0.000180022ZM26.0002 3.4201V20.5783L18.8948 18.8029C18.8948 18.8023 18.8948 18.8016 18.8948 18.801C17.7741 18.521 17.0002 17.5329 17.0002 16.3771V15.5002V8.50018V7.62127C17.0002 6.46693 17.7735 5.47628 18.8948 5.19549L26.0002 3.4201ZM8.00023 10.0002H14.0002V14.0002H10.2463C10.0853 13.9737 9.92103 13.9737 9.76 14.0002H8.00023C6.87789 14.0002 6.00023 13.1225 6.00023 12.0002C6.00023 10.8778 6.87789 10.0002 8.00023 10.0002Z" fill="#47A069"/>
</svg>
