<svg width="44" height="43" viewBox="0 0 44 43" fill="none" xmlns="http://www.w3.org/2000/svg">
<path d="M21.9998 0.992188C20.6127 0.992188 19.2252 1.34328 17.9783 2.04688L1.76347 11.1934C1.58759 11.2877 1.43231 11.4163 1.30673 11.5714C1.18115 11.7266 1.0878 11.9053 1.03214 12.097C0.97649 12.2886 0.959653 12.4895 0.982618 12.6878C1.00558 12.8861 1.06789 13.0778 1.16589 13.2517C1.26388 13.4256 1.3956 13.5782 1.55332 13.7005C1.71104 13.8229 1.89159 13.9125 2.08439 13.9642C2.2772 14.0159 2.47838 14.0286 2.67614 14.0015C2.87391 13.9745 3.06429 13.9082 3.23613 13.8066L19.4529 4.66016C21.0351 3.76735 22.9645 3.76735 24.5467 4.66016L40.7635 13.8066C40.9353 13.9082 41.1257 13.9745 41.3235 14.0015C41.5212 14.0286 41.7224 14.0159 41.9152 13.9642C42.108 13.9125 42.2886 13.8229 42.4463 13.7005C42.604 13.5782 42.7357 13.4256 42.8337 13.2517C42.9317 13.0778 42.994 12.8861 43.017 12.6878C43.04 12.4895 43.0231 12.2886 42.9675 12.097C42.9118 11.9053 42.8185 11.7266 42.6929 11.5714C42.5673 11.4163 42.412 11.2877 42.2361 11.1934L26.0213 2.04688C24.7744 1.34328 23.3869 0.992188 21.9998 0.992188ZM14.0037 15.0137C12.7435 15.0134 11.4832 15.2669 10.3592 15.7734C10.1782 15.6414 9.9841 15.5249 9.7791 15.4219C8.2441 14.6619 6.31007 15.0133 5.07207 16.2773C3.09407 18.2973 2.33983 20.3423 2.20683 20.7363C1.60083 22.5473 2.3968 24.5154 3.9998 25.4434V28.5C3.9998 32.636 7.3638 36 11.4998 36H16.4998C17.8388 36 19.0954 35.6434 20.1854 35.0254C20.0724 34.3654 19.9998 33.692 19.9998 33V31.293C19.1748 32.325 17.9208 33 16.4998 33H15.4998V31H15.4139L16.7068 29.707C16.9928 29.421 17.0786 28.9912 16.9236 28.6172C16.7686 28.2432 16.4038 28 15.9998 28H11.9998C11.5958 28 11.231 28.2432 11.076 28.6172C10.921 28.9912 11.0068 29.421 11.2928 29.707L12.5857 31H12.4998V33H11.4998C9.0188 33 6.9998 30.981 6.9998 28.5V24.4258C6.9998 23.7118 6.49863 23.0971 5.79863 22.9551C5.75963 22.9461 5.71954 22.9397 5.67754 22.9277C5.15454 22.7447 4.88058 22.1985 5.05058 21.6875C5.07358 21.6195 5.63465 19.986 7.21465 18.373C7.44065 18.143 7.74977 18.0176 8.04277 18.0176C8.18377 18.0176 8.31921 18.0464 8.44121 18.1074C8.60521 18.1894 8.73474 18.3002 8.83574 18.4512C9.28874 19.1322 10.2024 19.3248 10.8924 18.8828C12.6934 17.7308 15.3122 17.7318 17.1072 18.8828C17.7962 19.3228 18.7099 19.1332 19.1639 18.4512C19.2649 18.3012 19.3944 18.1884 19.5584 18.1074C19.9344 17.9164 20.4519 18.034 20.7869 18.377C22.2959 19.917 22.8693 21.4593 22.9373 21.6523C23.0353 21.6003 23.1263 21.5401 23.2283 21.4941C24.0693 21.1131 24.975 20.9703 25.865 21.0293C25.84 20.9303 25.8267 20.8304 25.7947 20.7324C25.6637 20.3424 24.9084 18.2953 22.9314 16.2773C21.6934 15.0113 19.7584 14.6598 18.2244 15.4238C18.0194 15.5258 17.8273 15.6405 17.6463 15.7715C16.5243 15.267 15.264 15.0139 14.0037 15.0137ZM10.4998 23C10.102 23 9.72045 23.158 9.43914 23.4393C9.15784 23.7206 8.9998 24.1022 8.9998 24.5C8.9998 24.8978 9.15784 25.2794 9.43914 25.5607C9.72045 25.842 10.102 26 10.4998 26C10.8976 26 11.2792 25.842 11.5605 25.5607C11.8418 25.2794 11.9998 24.8978 11.9998 24.5C11.9998 24.1022 11.8418 23.7206 11.5605 23.4393C11.2792 23.158 10.8976 23 10.4998 23V23ZM17.4998 23C17.102 23 16.7204 23.158 16.4391 23.4393C16.1578 23.7206 15.9998 24.1022 15.9998 24.5C15.9998 24.8978 16.1578 25.2794 16.4391 25.5607C16.7204 25.842 17.102 26 17.4998 26C17.8976 26 18.2792 25.842 18.5605 25.5607C18.8418 25.2794 18.9998 24.8978 18.9998 24.5C18.9998 24.1022 18.8418 23.7206 18.5605 23.4393C18.2792 23.158 17.8976 23 17.4998 23V23ZM25.5154 23.002C25.0194 22.9988 24.5205 23.0998 24.0525 23.3125C22.8058 23.8782 21.9998 25.1303 21.9998 26.5V33C21.9998 38.5048 26.495 43 31.9998 43C37.5046 43 41.9998 38.5048 41.9998 33L42.0018 26.5C42.0018 25.1303 41.1938 23.8782 39.9471 23.3125C38.7007 22.7485 37.2259 22.9639 36.1951 23.8672V23.8652L33.7576 26H30.2439L27.8045 23.8652C27.2893 23.4145 26.6629 23.1354 26.0096 23.0391C25.8462 23.015 25.6808 23.003 25.5154 23.002ZM25.5721 26.0039C25.6646 26.0172 25.7541 26.0567 25.8299 26.123L28.6912 28.6289C28.9648 28.8683 29.316 29.0001 29.6795 29H34.3201C34.6836 29.0001 35.0348 28.8683 35.3084 28.6289L38.1717 26.123C38.3209 25.9923 38.5232 25.9609 38.7088 26.0449C38.8901 26.1272 39.0018 26.2997 39.0018 26.5L38.9998 33C38.9998 36.8832 35.883 40 31.9998 40C28.1166 40 24.9998 36.8832 24.9998 33V26.5C24.9998 26.2997 25.1115 26.1272 25.2928 26.0449C25.3839 26.0035 25.4795 25.9906 25.5721 26.0039ZM28.4998 31.002C28.102 31.002 27.7204 31.16 27.4391 31.4413C27.1578 31.7226 26.9998 32.1041 26.9998 32.502C26.9998 32.8998 27.1578 33.2813 27.4391 33.5626C27.7204 33.8439 28.102 34.002 28.4998 34.002C28.8976 34.002 29.2792 33.8439 29.5605 33.5626C29.8418 33.2813 29.9998 32.8998 29.9998 32.502C29.9998 32.1041 29.8418 31.7226 29.5605 31.4413C29.2792 31.16 28.8976 31.002 28.4998 31.002ZM35.4998 31.002C35.102 31.002 34.7204 31.16 34.4391 31.4413C34.1578 31.7226 33.9998 32.1041 33.9998 32.502C33.9998 32.8998 34.1578 33.2813 34.4391 33.5626C34.7204 33.8439 35.102 34.002 35.4998 34.002C35.8976 34.002 36.2792 33.8439 36.5605 33.5626C36.8418 33.2813 36.9998 32.8998 36.9998 32.502C36.9998 32.1041 36.8418 31.7226 36.5605 31.4413C36.2792 31.16 35.8976 31.002 35.4998 31.002ZM30.9998 35C30.5958 35 30.231 35.2432 30.076 35.6172C29.921 35.9912 30.0068 36.421 30.2928 36.707L31.2928 37.707C31.4878 37.902 31.7438 38 31.9998 38C32.2558 38 32.5118 37.902 32.7068 37.707L33.7068 36.707C33.9928 36.421 34.0786 35.9912 33.9236 35.6172C33.7686 35.2432 33.4038 35 32.9998 35H30.9998Z" fill="#47A069"/>
</svg>
