<svg width="40" height="37" viewBox="0 0 40 37" fill="none" xmlns="http://www.w3.org/2000/svg">
<path d="M20.0003 0C16.0553 0 11.9938 0.742835 8.75814 2.38477C5.60649 3.98406 3.13844 6.66343 3.01205 10.2168C2.74385 10.9217 -1.09386 21.2366 0.361657 32.2539C0.720844 34.9719 3.07349 37 5.80306 37H34.1956C36.9252 37 39.2797 34.9724 39.639 32.2539C41.0945 21.2366 37.2568 10.9217 36.9886 10.2168C36.8622 6.66343 34.3942 3.98406 31.2425 2.38477C28.0068 0.742835 23.9453 0 20.0003 0ZM20.0003 3C23.5553 3 27.2438 3.71927 29.8831 5.05859C31.9306 6.09758 33.268 7.37205 33.7699 9H6.2308C6.73263 7.37205 8.07004 6.09758 10.1175 5.05859C12.7568 3.71927 16.4453 3 20.0003 3ZM5.6351 12H34.3656C34.8581 13.3707 37.9398 22.2075 36.6644 31.8613C36.5016 33.0928 35.4521 34 34.1956 34H5.80306C4.54664 34 3.49908 33.0933 3.33627 31.8613C2.06088 22.2075 5.14252 13.3707 5.6351 12ZM19.9769 15.9785C19.5794 15.9847 19.2006 16.1485 18.9238 16.4337C18.6469 16.719 18.4946 17.1025 18.5003 17.5V21.5H14.5003C14.3016 21.4972 14.1042 21.5339 13.9198 21.608C13.7353 21.6822 13.5674 21.7922 13.4259 21.9318C13.2843 22.0713 13.1719 22.2376 13.0952 22.421C13.0185 22.6044 12.979 22.8012 12.979 23C12.979 23.1988 13.0185 23.3956 13.0952 23.579C13.1719 23.7624 13.2843 23.9287 13.4259 24.0682C13.5674 24.2078 13.7353 24.3178 13.9198 24.392C14.1042 24.4661 14.3016 24.5028 14.5003 24.5H18.5003V28.5C18.4975 28.6988 18.5342 28.8961 18.6084 29.0806C18.6825 29.265 18.7925 29.4329 18.9321 29.5745C19.0717 29.716 19.238 29.8284 19.4214 29.9051C19.6047 29.9819 19.8015 30.0214 20.0003 30.0214C20.1991 30.0214 20.3959 29.9819 20.5793 29.9051C20.7627 29.8284 20.929 29.716 21.0686 29.5745C21.2081 29.4329 21.3182 29.265 21.3923 29.0806C21.4664 28.8961 21.5031 28.6988 21.5003 28.5V24.5H25.5003C25.6991 24.5028 25.8964 24.4661 26.0809 24.392C26.2653 24.3178 26.4332 24.2078 26.5748 24.0682C26.7163 23.9287 26.8287 23.7624 26.9055 23.579C26.9822 23.3956 27.0217 23.1988 27.0217 23C27.0217 22.8012 26.9822 22.6044 26.9055 22.421C26.8287 22.2376 26.7163 22.0713 26.5748 21.9318C26.4332 21.7922 26.2653 21.6822 26.0809 21.608C25.8964 21.5339 25.6991 21.4972 25.5003 21.5H21.5003V17.5C21.5032 17.2992 21.4658 17.0999 21.3902 16.9139C21.3146 16.7279 21.2025 16.5589 21.0604 16.417C20.9184 16.2752 20.7492 16.1632 20.5631 16.0879C20.377 16.0126 20.1777 15.9754 19.9769 15.9785Z" fill="#47A069"/>
</svg>
